{"title":"Legend of Korra - Republic City Hustle 1-3","uid":8844584,"size":330259148,"categoryP":"video","categoryS":"hd___tv_shows","magnet":"?xt=urn:btih:360bbba22fd71e789e2cdfffc8ffad653cc7d4e0&amp;dn=Legend+of+Korra+-+Republic+City+Hustle+1-3&amp;tr=udp%3A%2F%2Ftracker.openbittorrent.com%3A80&amp;tr=udp%3A%2F%2Fopen.demonii.com%3A1337&amp;tr=udp%3A%2F%2Ftracker.coppersurfer.tk%3A6969&amp;tr=udp%3A%2F%2Fexodus.desync.com%3A6969","seeders":5,"leechers":0,"uploader":"Danimal1q2w3","files":3,"time":1377343492,"description":"NEW SEASON AIRS 9/13 BE SURE TO CHECK OUT MY PAGE I WILL BE UPLOADING THE NEW EPISODES WEEKLY, also, taking requests\n\nVideo\nID                                       : 0\nFormat                                   : MPEG-4 Visual\nFormat profile                           : Simple@L3\nFormat settings, BVOP                    : No\nFormat settings, QPel                    : No\nFormat settings, GMC                     : No warppoints\nFormat settings, Matrix                  : Default (H.263)\nCodec ID                                 : XVID\nCodec ID/Hint                            : XviD\nDuration                                 : 2mn 43s\nBit rate                                 : 4 381 Kbps\nWidth                                    : 1 680 pixels\nHeight                                   : 1 050 pixels\nDisplay aspect ratio                     : 1.600\nFrame rate                               : 24.000 fps\nColor space                              : YUV\nChroma subsampling                       : 4:2:0\nBit depth                                : 8 bits\nScan type                                : Progressive\nCompression mode                         : Lossy\nBits/(Pixel*Frame)                       : 0.103\nStream size                              : 85.3 MiB (93%)\nWriting library                          : XviD 63\n\nAudio\nID                                       : 1\nFormat                                   : MPEG Audio\nFormat version                           : Version 1\nFormat profile                           : Layer 3\nMode                                     : Joint stereo\nMode extension                           : MS Stereo\nCodec ID                                 : 55\nCodec ID/Hint                            : MP3\nDuration                                 : 2mn 43s\nBit rate mode                            : Variable\nBit rate                                 : 304 Kbps\nChannel(s)                               : 2 channels\nSampling rate                            : 48.0 KHz\nCompression mode                         : Lossy\nStream size                              : 5.91 MiB (6%)\nAlignment                                : Aligned on interleaves\nInterleave, duration                     : 24 ms (0.58 video frame)\nInterleave, preload duration             : 53 ms\nWriting library                          : LAME3.98.4\n\n","torrent":{"xt":"urn:btih:360bbba22fd71e789e2cdfffc8ffad653cc7d4e0","amp;dn":"Legend+of+Korra+-+Republic+City+Hustle+1-3","amp;tr":["udp%3A%2F%2Ftracker.openbittorrent.com%3A80","udp%3A%2F%2Fopen.demonii.com%3A1337","udp%3A%2F%2Ftracker.coppersurfer.tk%3A6969","udp%3A%2F%2Fexodus.desync.com%3A6969"],"infoHash":"360bbba22fd71e789e2cdfffc8ffad653cc7d4e0","infoHashBuffer":{"type":"Buffer","data":[54,11,187,162,47,215,30,120,158,44,223,255,200,255,173,101,60,199,212,224]},"announce":[],"urlList":[]}}